<?xml version="1.0" standalone="no"?>
<!DOCTYPE svg PUBLIC "-//W3C//DTD SVG 20010904//EN"
 "http://www.w3.org/TR/2001/REC-SVG-20010904/DTD/svg10.dtd">
<svg version="1.0" xmlns="http://www.w3.org/2000/svg"
 width="474.000000pt" height="476.000000pt" viewBox="0 0 474.000000 476.000000"
 preserveAspectRatio="xMidYMid meet">

<g transform="translate(0.000000,476.000000) scale(0.100000,-0.100000)"
fill="#000000" stroke="none">
<path d="M2135 3916 c-106 -22 -232 -66 -380 -132 -80 -35 -148 -64 -151 -64
-3 0 -53 -22 -112 -49 -105 -48 -274 -121 -482 -208 -58 -24 -123 -53 -145
-65 -22 -11 -96 -44 -165 -73 -454 -191 -502 -215 -545 -271 -53 -70 -55 -89
-55 -568 1 -479 0 -474 59 -559 27 -40 47 -54 129 -93 53 -26 174 -77 267
-114 230 -92 518 -212 585 -243 30 -14 143 -62 250 -107 107 -45 256 -108 331
-140 463 -203 585 -201 1094 23 44 19 168 72 275 117 107 45 245 103 305 130
61 27 144 62 185 79 41 16 161 67 265 111 105 45 242 103 305 128 125 51 179
93 215 167 26 53 34 264 25 675 -6 297 -6 306 -30 356 -33 68 -89 108 -240
170 -69 28 -156 66 -195 83 -38 18 -110 48 -160 68 -49 20 -99 42 -110 49 -11
7 -69 33 -130 58 -60 24 -141 59 -180 76 -38 18 -119 52 -178 76 -59 25 -129
55 -155 69 -26 13 -81 37 -122 54 -41 16 -115 48 -165 71 -180 83 -385 141
-489 139 -22 -1 -68 -7 -101 -13z m97 -91 c-3 -5 1 -4 9 2 10 8 32 11 60 7 24
-3 61 -7 81 -9 20 -2 47 -9 59 -15 17 -10 20 -9 13 2 -6 11 -5 11 9 -1 9 -7
17 -10 17 -6 0 4 6 2 13 -4 8 -6 17 -8 20 -4 4 3 7 2 7 -3 0 -5 10 -10 22 -11
11 -1 25 -8 29 -15 5 -7 9 -10 9 -6 0 6 65 -19 185 -72 22 -10 101 -44 175
-76 74 -32 138 -62 141 -67 3 -5 10 -9 15 -9 23 -2 44 -11 44 -19 0 -5 9 -9
21 -9 11 0 18 -4 15 -9 -8 -13 21 -34 39 -28 20 8 29 -11 14 -30 -11 -13 -10
-17 6 -29 22 -17 13 -18 -18 -3 -20 9 -20 9 2 -9 17 -13 20 -21 12 -27 -7 -4
-10 -13 -7 -20 2 -7 -2 -21 -9 -32 -17 -21 -19 -37 -5 -28 6 3 10 2 10 -3 0
-13 -27 -23 -44 -16 -10 4 -12 -1 -9 -19 3 -14 -1 -28 -8 -32 -8 -5 -10 -4 -5
3 4 7 2 12 -3 12 -10 0 -16 -22 -12 -43 1 -5 -3 -6 -8 -2 -6 3 -7 13 -4 23 6
15 5 15 -8 2 -9 -9 -18 -22 -20 -29 -3 -8 -19 -15 -36 -15 -17 -1 -29 2 -26 7
5 8 -13 10 -72 7 -35 -1 -80 -21 -151 -67 -19 -12 -24 -11 -53 16 -23 21 -31
38 -31 63 0 44 -8 54 -55 68 -34 10 -43 19 -58 54 -9 22 -17 52 -17 64 0 38
-28 81 -73 109 -89 55 -149 116 -180 181 -16 34 -39 68 -51 74 -11 6 -29 21
-38 34 -12 15 -25 21 -40 17 -19 -4 -20 -3 -8 6 8 6 11 11 5 11 -13 0 -43 -20
-30 -20 6 0 -19 -19 -55 -41 -108 -69 -147 -113 -171 -194 -11 -38 -29 -85
-40 -103 -10 -18 -25 -62 -34 -97 -8 -36 -26 -82 -39 -102 -14 -21 -29 -58
-35 -81 -5 -25 -18 -50 -30 -59 -12 -8 -35 -29 -52 -46 -17 -18 -28 -26 -25
-20 5 9 2 11 -8 7 -9 -3 -14 -9 -11 -13 2 -4 -2 -8 -10 -8 -8 0 -12 4 -9 9 9
13 -4 9 -20 -8 -15 -14 -16 -14 -16 2 0 14 -2 15 -17 3 -15 -13 -15 -12 -4 10
11 19 11 22 0 15 -25 -15 -61 -13 -82 7 -11 10 -32 19 -45 19 -14 0 -30 8 -37
17 -7 10 -23 18 -36 18 -15 0 -28 9 -36 25 -7 14 -13 20 -13 13 0 -17 -39 -3
-51 19 -6 11 -17 17 -25 14 -9 -3 -12 -1 -9 4 3 6 0 10 -7 10 -10 0 -9 3 2 11
12 8 11 9 -5 6 -11 -2 -19 -9 -17 -16 2 -9 -3 -9 -18 -1 -23 12 -27 22 -6 14
24 -9 27 12 6 39 -11 14 -20 30 -20 37 0 6 -4 8 -10 5 -5 -3 -10 1 -10 9 0 9
-5 16 -11 16 -10 0 -3 40 10 50 11 9 33 52 23 46 -6 -3 -12 1 -15 9 -4 9 -1
12 9 8 7 -3 14 0 14 6 0 6 7 11 15 11 8 0 15 5 15 11 0 6 7 8 16 5 10 -4 13
-2 8 6 -5 7 0 9 14 6 12 -4 20 -3 17 2 -3 4 1 10 8 13 6 3 138 60 292 127 154
67 285 123 290 124 6 1 28 10 50 20 22 9 55 19 74 22 19 3 44 10 56 14 13 5
26 5 31 0 6 -6 20 -4 34 4 29 15 101 16 92 1z m-46 -129 l-16 -56 30 -66 c16
-37 30 -72 30 -77 0 -6 -19 8 -43 31 l-44 43 -32 -65 c-20 -39 -36 -87 -40
-125 -4 -34 -8 -65 -8 -69 -1 -4 15 -27 34 -50 l36 -44 -7 -82 -6 -83 50 -67
c28 -36 48 -66 45 -66 -17 0 -154 87 -180 114 -17 17 -40 40 -53 50 l-23 20
-52 -52 c-42 -41 -69 -57 -137 -82 l-85 -30 88 87 c48 49 87 96 87 105 0 9 15
45 34 81 19 35 38 86 41 113 6 40 34 135 82 282 7 20 173 154 181 147 2 -2 -3
-28 -12 -59z m-991 -266 c3 -5 1 -10 -4 -10 -6 0 -11 5 -11 10 0 6 2 10 4 10
3 0 8 -4 11 -10z m2045 -288 c-21 -17 -23 -26 -22 -108 l2 -89 -16 37 -16 38
-30 -22 c-31 -21 -31 -22 -24 -95 6 -71 5 -73 -14 -61 -17 11 -25 8 -61 -27
l-41 -40 27 54 c19 39 26 65 24 98 -3 40 1 48 27 72 17 14 38 46 48 71 9 25
20 50 24 56 12 17 45 33 71 34 l23 0 -22 -18z m-2141 -173 c-31 -40 -32 -41
-26 -121 l7 -81 -25 23 c-21 19 -28 21 -55 12 -17 -6 -43 -20 -58 -30 -15 -11
-40 -22 -57 -26 -16 -4 -39 -9 -50 -12 -11 -3 16 19 59 50 109 77 114 82 133
144 10 32 27 61 40 69 14 10 29 37 40 76 l18 62 3 -63 c3 -58 0 -66 -29 -103z
m408 79 c2 -17 0 -19 -7 -8 -5 8 -6 18 -4 22 8 12 10 10 11 -14z m628 -304
c60 -28 67 -104 14 -149 -33 -27 -89 -41 -116 -30 -15 7 -14 9 9 14 45 10 68
36 68 78 0 21 -4 43 -8 50 -11 17 -51 30 -79 25 -23 -4 -23 -5 -23 -159 0
-146 1 -155 20 -160 38 -10 20 -23 -32 -23 -29 0 -63 -3 -75 -6 -28 -8 -31 12
-3 21 19 6 20 15 20 165 0 131 -3 159 -15 164 -8 3 -15 10 -15 16 0 17 196 13
235 -6z m313 -61 c21 -16 27 -29 27 -59 0 -32 -5 -42 -32 -60 -29 -20 -31 -23
-16 -35 8 -8 24 -34 35 -59 11 -25 27 -53 35 -62 15 -17 14 -18 -23 -18 -44 0
-56 12 -74 80 -6 23 -23 53 -37 66 -25 23 -25 24 -4 24 28 0 61 34 61 63 0 28
-25 53 -62 62 l-28 7 0 -141 c0 -119 2 -141 15 -141 8 0 15 -4 15 -10 0 -6
-28 -10 -65 -10 -63 0 -86 12 -45 23 19 5 20 14 20 137 0 123 -1 132 -20 137
-11 3 -20 10 -20 16 0 6 34 8 96 5 75 -4 101 -10 122 -25z m331 -7 c16 -9 43
-33 58 -53 36 -47 40 -135 7 -180 -54 -74 -172 -93 -252 -41 -53 35 -75 86
-70 155 8 91 80 147 180 138 26 -2 60 -11 77 -19z m-1029 9 c0 -3 -11 -10 -23
-14 -16 -6 -38 -37 -65 -89 -34 -65 -42 -90 -42 -135 0 -48 3 -56 23 -62 l22
-7 -25 -8 c-14 -4 -45 -8 -70 -9 -39 0 -43 1 -27 13 12 10 17 28 17 69 0 46
-6 67 -36 117 -19 33 -46 68 -60 77 -14 9 -21 19 -17 24 11 10 113 16 113 7 0
-5 -4 -8 -10 -8 -17 0 -12 -16 22 -70 l32 -51 27 53 c34 65 34 65 7 74 l-23 8
25 7 c30 8 110 11 110 4z m1343 -36 c132 -35 168 -246 49 -296 -28 -12 -56
-14 -117 -9 -44 4 -89 10 -100 13 -19 6 -19 6 3 14 21 8 22 13 22 137 0 123
-1 130 -22 146 -22 16 -20 16 52 11 41 -3 92 -11 113 -16z m-1700 -10 c12 -7
25 -17 29 -23 14 -20 8 -63 -11 -80 -18 -16 -18 -18 10 -46 16 -16 29 -38 29
-50 0 -34 -27 -76 -57 -89 -31 -13 -134 -31 -173 -31 -23 1 -24 2 -7 14 15 11
17 31 17 150 0 120 -2 136 -17 136 -32 0 -1 14 45 21 76 10 112 10 135 -2z
m1962 -26 c29 -6 29 -6 7 -14 -23 -9 -24 -11 -20 -125 3 -113 4 -116 31 -140
19 -16 40 -24 67 -24 59 0 70 23 70 147 0 94 -2 103 -22 118 -22 16 -21 17 27
10 62 -9 75 -16 47 -26 -21 -8 -22 -15 -22 -109 0 -148 -23 -180 -119 -167
-56 7 -92 27 -118 66 -21 30 -23 46 -23 147 0 95 -3 114 -15 114 -8 0 -15 5
-15 11 0 11 20 9 105 -8z m-2213 -43 c-4 -39 -12 -52 -20 -31 -9 27 -43 51
-71 51 -38 0 -92 -38 -113 -80 -22 -43 -23 -121 -3 -160 21 -41 78 -57 128
-36 34 14 37 18 37 55 0 36 -3 41 -22 41 -15 0 -19 3 -12 10 14 14 114 30 114
19 0 -5 -4 -9 -10 -9 -5 0 -10 -24 -10 -54 l0 -54 -42 -17 c-149 -59 -279 0
-265 122 13 114 137 203 257 183 33 -5 35 -8 32 -40z m-332 -20 c0 -5 -6 -10
-14 -10 -22 0 -26 -24 -26 -152 0 -111 1 -120 20 -125 34 -9 22 -19 -41 -32
-58 -12 -91 -9 -55 5 14 5 16 25 16 145 0 124 -2 139 -17 139 -30 0 0 18 47
28 61 13 70 14 70 2z m-226 -32 c9 -12 16 -32 16 -43 0 -29 -36 -84 -65 -97
l-24 -11 24 -19 c14 -10 33 -39 44 -63 10 -24 29 -49 41 -55 31 -16 13 -30
-41 -33 l-43 -2 -26 65 c-17 41 -34 69 -48 75 -29 13 -28 18 9 34 37 16 64 68
55 105 -7 29 -41 42 -81 32 l-25 -6 0 -160 c0 -153 1 -160 20 -160 11 0 20 -4
20 -10 0 -5 -2 -10 -5 -10 -3 0 -37 -9 -75 -19 -42 -12 -70 -16 -70 -9 0 5 8
12 19 15 16 4 19 20 24 148 6 153 3 185 -19 185 -37 0 -6 18 64 37 107 29 166
30 186 1z m3233 7 c55 -23 70 -40 65 -75 -4 -30 -22 -43 -22 -16 0 24 -40 64
-76 76 -72 24 -124 -25 -124 -117 0 -84 66 -163 137 -163 24 0 37 7 49 25 22
34 31 31 36 -10 4 -33 2 -35 -30 -41 -52 -10 -137 21 -188 68 -72 66 -91 150
-48 216 32 49 129 67 201 37z m231 -62 c102 -28 112 -34 112 -70 0 -29 -16
-30 -25 -2 -4 11 -22 27 -41 35 -58 24 -64 20 -64 -40 0 -60 0 -61 48 -71 25
-5 32 -3 32 9 0 9 5 16 10 16 6 0 10 -22 10 -50 0 -50 -16 -70 -22 -27 -2 15
-14 25 -38 33 l-35 12 -3 -65 c-2 -36 -2 -67 0 -69 2 -1 25 -9 51 -16 38 -10
52 -10 67 0 28 17 30 16 30 -19 0 -21 -4 -30 -12 -27 -7 3 -61 18 -120 34 -97
26 -135 44 -93 44 13 0 15 22 15 135 0 111 -3 137 -15 141 -14 6 -22 24 -10
24 3 0 49 -12 103 -27z m-2053 -172 c-10 -8 -78 -45 -310 -166 -60 -32 -122
-66 -137 -77 -36 -25 -139 -72 -161 -74 -16 -1 -16 0 -2 16 11 12 13 20 5 25
-5 3 -8 10 -5 15 3 5 -4 7 -15 5 -37 -7 -20 16 28 36 50 22 219 89 417 166 66
26 124 50 130 55 12 11 62 10 50 -1z m94 -4 c-15 -11 -217 -197 -261 -240 -12
-11 -26 -16 -39 -12 -23 8 -47 -10 -60 -43 -8 -22 -10 -22 -31 -8 -16 12 -25
13 -35 4 -10 -8 -17 -8 -25 0 -7 7 -10 13 -7 15 15 12 141 97 143 97 1 0 70
45 152 100 82 54 156 99 164 99 13 0 12 -2 -1 -12z m39 -34 c-14 -21 -36 -57
-49 -80 -22 -39 -25 -41 -41 -26 -16 14 -13 20 44 84 66 73 87 83 46 22z m49
-42 c-15 -66 -23 -88 -34 -84 -9 4 -22 -14 -40 -56 -14 -33 -30 -61 -35 -61
-4 0 -8 2 -8 5 0 10 129 285 134 285 2 0 -6 -40 -17 -89z m272 -44 c104 -108
171 -180 188 -205 14 -20 14 -26 -2 -68 -19 -51 -12 -68 26 -62 17 2 25 12 32
38 l9 35 60 -65 c42 -46 55 -66 44 -68 -9 -2 -16 -8 -16 -13 0 -5 -13 -9 -30
-9 -17 0 -30 -5 -30 -12 0 -9 -3 -8 -9 2 -6 8 -7 18 -4 24 3 5 2 6 -4 3 -5 -3
-8 -20 -7 -36 1 -17 -2 -29 -7 -26 -4 3 -5 13 -2 22 4 11 2 14 -5 9 -7 -4 -26
16 -49 50 -21 32 -49 73 -62 92 -23 34 -23 36 -6 64 15 27 15 31 2 46 -9 9
-26 29 -40 43 -17 19 -31 25 -48 22 -21 -4 -30 6 -69 67 -25 40 -53 84 -62 98
-10 15 -25 41 -34 57 l-16 30 37 -35 c20 -19 67 -66 104 -103z m80 46 c69 -42
128 -78 131 -80 7 -6 -31 -33 -45 -33 -6 0 -49 32 -95 71 -188 158 -187 161 9
42z m17 66 c116 -42 160 -58 212 -77 l54 -19 -32 -11 c-33 -12 -26 -15 -260
97 -75 36 -61 41 26 10z m-811 -15 c-76 -24 -192 -59 -337 -102 -66 -20 -117
-18 -118 3 0 6 3 10 8 11 4 0 14 4 22 7 53 22 423 105 470 105 28 1 18 -5 -45
-24z m602 -157 c-13 -39 -21 -26 -46 70 -30 119 -25 129 18 38 32 -68 37 -84
28 -108z m528 147 c218 -48 256 -57 261 -65 2 -5 11 -6 20 -2 9 3 14 0 12 -8
-2 -8 3 -13 10 -11 8 1 11 -2 8 -7 -8 -12 -67 -5 -145 18 -36 11 -133 39 -216
62 -82 22 -152 43 -155 46 -8 8 89 -8 205 -33z m-621 -86 c4 -51 10 -113 13
-138 l6 -45 -27 39 c-27 38 -27 41 -20 142 4 57 10 102 14 99 4 -2 10 -46 14
-97z m721 -8 c57 -48 -47 -147 -210 -201 -46 -15 -52 -20 -70 -65 -10 -27 -20
-50 -21 -52 0 -1 -8 0 -17 4 -15 5 -14 10 4 47 17 32 19 45 10 59 -9 15 -8 18
8 18 13 0 27 19 49 68 16 37 29 68 27 70 -4 5 -84 -36 -117 -60 -23 -16 -28
-17 -28 -4 0 71 303 167 365 116z m232 -15 c0 -8 -4 -12 -9 -9 -5 3 -6 10 -3
15 9 13 12 11 12 -6z m-1171 -8 c2 -7 -13 -51 -34 -97 -21 -47 -51 -118 -66
-157 -17 -43 -34 -73 -42 -73 -8 0 -14 3 -14 6 0 18 134 334 142 334 5 0 11
-6 14 -13z m1351 -6 c4 -15 15 -21 47 -23 l41 -3 -55 -10 c-50 -9 -57 -14 -77
-50 -12 -22 -25 -53 -29 -70 l-7 -30 27 24 c14 14 26 30 26 36 0 6 14 26 32
44 41 42 69 39 83 -11 l10 -38 29 36 c33 41 69 44 74 6 4 -26 -32 -72 -55 -72
-7 0 -13 -7 -13 -15 0 -16 9 -19 27 -7 22 14 83 97 83 113 0 23 26 43 46 35
15 -6 15 -8 0 -25 -14 -15 -17 -34 -14 -83 3 -59 2 -63 -20 -66 -23 -4 -52 13
-52 30 0 5 8 4 19 -1 22 -12 31 -5 31 25 0 38 -17 36 -47 -5 -48 -68 -84 -76
-104 -23 l-10 26 -30 -37 c-40 -48 -74 -50 -94 -4 -8 17 -15 28 -15 22 0 -5
-10 -21 -21 -35 -20 -24 -21 -24 -35 -6 -7 11 -11 24 -8 30 3 6 -5 -2 -19 -17
-24 -29 -37 -25 -49 13 -3 10 -10 5 -22 -17 -9 -18 -20 -33 -24 -33 -15 0 -32
24 -32 45 0 17 -4 15 -26 -13 -21 -27 -29 -31 -41 -21 -8 7 -12 21 -9 33 4 14
-5 9 -31 -17 -53 -55 -93 -46 -93 21 0 57 46 122 87 122 13 0 23 -1 23 -2 0
-2 6 -20 13 -40 l13 -38 22 45 c12 25 17 45 12 45 -6 0 -10 5 -10 10 0 6 7 10
15 10 9 0 20 12 25 26 11 27 36 28 34 0 -1 -13 8 -16 45 -17 33 -1 40 -3 22
-8 -21 -6 -22 -8 -7 -20 9 -7 16 -20 16 -28 0 -7 7 -16 15 -19 13 -5 13 -9 0
-34 -22 -42 -19 -47 11 -19 27 25 61 95 56 117 -2 6 2 12 8 12 6 0 16 11 22
25 13 30 28 32 35 6z m-993 -19 c3 -5 -13 -43 -35 -86 -23 -43 -39 -79 -37
-81 2 -2 12 11 23 30 19 36 51 47 61 21 3 -7 -2 -31 -10 -52 l-16 -39 35 40
c95 110 105 114 135 58 9 -18 20 -30 24 -26 3 3 6 0 6 -8 0 -22 -86 -109 -107
-109 -25 0 -43 19 -43 45 -1 18 -3 18 -23 -7 -13 -16 -28 -28 -34 -28 -18 0
-24 32 -14 68 5 17 8 32 6 32 -2 0 -18 -25 -35 -55 -31 -53 -60 -72 -60 -38 0
15 -1 15 -18 0 -20 -18 -42 -7 -42 23 0 8 -9 0 -20 -17 -11 -18 -23 -33 -28
-33 -15 0 -32 24 -32 45 0 17 -3 16 -20 -10 -24 -37 -42 -38 -50 -5 -6 24 -7
24 -18 5 -28 -48 -29 -50 -46 -36 -23 19 -20 73 7 112 26 38 55 49 72 26 10
-13 17 -4 41 53 31 74 31 75 53 61 11 -7 10 -14 -6 -37 -19 -27 -73 -145 -73
-160 0 -15 41 31 65 72 30 50 56 69 73 52 7 -7 12 -18 12 -25 0 -6 7 -16 15
-21 14 -7 14 -11 0 -38 -22 -42 -19 -47 11 -17 15 15 44 64 65 110 36 77 50
95 63 75z m-1207 -18 c2 -7 -24 -14 -74 -18 -119 -11 -117 -10 -152 -85 -37
-81 -37 -83 -8 -77 60 13 137 17 137 7 0 -5 -17 -13 -37 -16 -21 -4 -61 -11
-90 -16 l-52 -10 -22 -60 c-23 -61 -25 -64 -47 -50 -11 7 -10 16 7 50 21 41
21 41 1 41 -31 0 -24 19 13 35 27 11 38 25 54 67 12 29 24 61 28 71 6 15 4 16
-20 7 -37 -14 -55 -13 -49 5 7 18 59 35 159 51 92 14 147 14 152 -2z m1866 5
c24 -11 36 -59 15 -59 -5 0 -7 4 -4 9 8 12 -50 35 -64 26 -9 -6 -9 -2 -1 14
13 24 20 25 54 10z m-1138 -150 c-30 -73 -53 -139 -51 -146 3 -6 -1 -17 -9
-23 -7 -6 -21 -27 -30 -47 -12 -24 -20 -32 -25 -23 -5 8 -10 9 -14 2 -4 -6
-13 -9 -22 -5 -10 4 -12 9 -4 18 8 9 4 11 -15 7 -29 -5 -31 0 -9 22 8 9 11 16
5 16 -5 0 -13 -5 -16 -10 -4 -6 -11 -8 -16 -5 -5 4 -9 1 -9 -5 0 -6 -5 -8 -10
-5 -8 5 -7 11 1 21 6 7 15 11 20 8 5 -3 9 -2 8 3 -5 19 15 43 34 43 30 0 57
29 57 60 0 19 22 53 78 117 42 50 78 89 80 88 1 -1 -23 -62 -53 -136z m803
106 c-9 -20 -14 -23 -25 -13 -13 10 -12 14 3 25 27 20 35 16 22 -12z m-1364
-21 c4 -9 9 -14 12 -11 8 8 33 -16 27 -25 -2 -5 -12 -8 -21 -8 -15 0 -15 2 -2
10 13 9 13 10 0 11 -8 1 -18 1 -22 0 -5 0 -7 5 -5 12 1 7 -6 11 -18 9 -16 -2
-17 -1 -5 7 21 15 27 14 34 -5z m1050 0 c4 -10 1 -14 -6 -12 -15 5 -23 28 -10
28 5 0 13 -7 16 -16z m-1085 -17 c-2 -1 -13 -9 -24 -17 -19 -14 -19 -14 -6 3
7 9 18 17 24 17 6 0 8 -1 6 -3z m485 -6 c3 -5 -1 -14 -10 -21 -11 -10 -14 -29
-12 -79 3 -65 3 -66 -24 -69 -19 -2 -30 3 -38 18 -11 20 -10 21 9 11 29 -16
31 -14 31 18 0 47 -14 44 -55 -11 l-38 -51 -18 22 c-18 22 -18 22 -29 1 -6
-11 -17 -20 -24 -20 -16 0 -29 27 -20 41 13 21 -9 7 -33 -21 -37 -45 -93 -36
-93 15 0 16 -4 14 -21 -13 -18 -27 -24 -30 -36 -20 -10 8 -13 23 -9 48 5 33 4
34 -10 15 -9 -11 -20 -32 -26 -47 -5 -16 -14 -28 -19 -28 -17 0 -21 29 -10 60
14 42 -4 29 -29 -20 -25 -49 -38 -57 -49 -29 l-8 23 -12 -22 c-13 -25 -28 -21
-40 11 -7 19 -9 19 -26 -11 -15 -25 -22 -29 -37 -21 -53 28 22 197 78 175 8
-3 14 -14 14 -25 0 -10 7 -21 15 -24 12 -5 12 -10 0 -34 -8 -15 -15 -32 -15
-37 0 -15 41 27 57 57 12 24 17 26 29 16 12 -10 18 -8 30 9 13 19 18 20 37 10
12 -6 31 -12 42 -12 21 -1 25 -23 10 -61 -7 -18 -5 -17 18 4 15 14 27 30 27
37 0 13 65 74 79 74 13 0 32 -26 41 -57 l8 -28 12 33 c11 30 28 40 43 25 4 -3
2 -11 -3 -18 -5 -6 -17 -29 -26 -51 l-16 -39 27 25 c15 14 34 40 41 58 8 17
18 32 24 32 15 0 22 -20 11 -33 -5 -7 -15 -26 -21 -42 l-11 -30 31 30 c18 17
41 49 51 73 17 39 41 54 53 33z m1106 -64 c0 -23 7 -52 15 -63 8 -12 11 -25 7
-30 -4 -5 1 -2 11 5 14 11 17 11 17 -2 0 -25 -26 -14 -95 42 l-66 54 38 18
c63 29 73 25 73 -24z m-334 -77 c0 -21 -20 -27 -31 -10 -8 13 3 30 18 30 7 0
13 -9 13 -20z m-104 -27 c17 5 25 -6 54 -68 36 -79 40 -90 24 -80 -6 4 -7 -1
-3 -12 6 -16 5 -16 -11 -4 -9 8 -16 10 -15 5 4 -23 -2 -26 -16 -8 -15 18 -15
18 -8 0 4 -13 3 -17 -5 -12 -6 3 -13 2 -17 -4 -9 -14 -31 -13 -33 3 0 6 -12
49 -26 95 -19 62 -23 89 -16 103 10 18 11 18 31 -2 13 -13 29 -19 41 -16z
m-220 2 l33 0 8 -70 c11 -97 6 -138 -16 -141 -10 -1 -14 2 -10 8 4 7 -2 9 -15
6 -23 -6 -31 7 -10 14 7 3 5 7 -6 11 -9 4 -15 3 -12 -1 2 -4 1 -14 -4 -22 -7
-12 -12 -12 -22 -2 -11 11 -12 49 -3 122 2 14 4 43 4 65 1 29 4 36 11 25 5 -8
24 -14 42 -15z m-171 -5 c15 0 17 -7 13 -37 -3 -21 -13 -62 -22 -92 -12 -42
-17 -50 -23 -35 -7 18 -8 18 -9 -1 -1 -12 -4 -15 -7 -7 -4 10 -8 10 -19 1 -11
-9 -15 -8 -20 5 -4 10 -13 15 -20 12 -8 -3 -20 -3 -28 0 -23 9 34 138 63 142
12 2 25 10 28 18 4 11 9 12 16 5 6 -6 19 -11 28 -11z m-506 -20 c3 -5 1 -10
-4 -10 -6 0 -11 5 -11 10 0 6 2 10 4 10 3 0 8 -4 11 -10z m375 -152 c0 -4 -4
-8 -9 -8 -6 0 -12 4 -15 8 -3 5 1 9 9 9 8 0 15 -4 15 -9z"/>
<path d="M2648 2665 c-80 -45 -81 -192 -2 -254 30 -24 52 -26 88 -9 32 14 66
82 66 132 0 98 -83 169 -152 131z"/>
<path d="M3010 2506 c0 -113 2 -135 16 -140 31 -12 63 -6 91 18 26 23 28 29
28 103 0 89 -17 125 -67 142 -69 24 -68 26 -68 -123z"/>
<path d="M1297 2623 c-4 -3 -7 -30 -7 -60 0 -46 3 -53 20 -53 28 0 60 35 60
64 0 35 -53 70 -73 49z"/>
<path d="M1297 2483 c-4 -3 -7 -35 -7 -70 0 -50 3 -63 16 -63 19 0 56 19 66
34 14 21 8 73 -10 89 -19 17 -53 22 -65 10z"/>
<path d="M2834 2139 c-37 -9 -43 -14 -74 -79 -19 -38 -31 -72 -27 -76 10 -11
104 26 149 58 50 37 67 57 68 79 0 29 -38 35 -116 18z m106 -18 c0 -20 -30
-33 -57 -24 -46 16 -40 33 11 33 25 0 46 -4 46 -9z m-120 -92 c0 -5 -53 -29
-66 -29 -2 0 2 13 7 29 10 27 13 29 35 19 13 -6 24 -15 24 -19z"/>
<path d="M3102 2013 c-17 -37 -29 -69 -27 -72 8 -7 46 32 62 64 9 16 25 40 36
53 l20 22 -30 0 c-27 0 -33 -6 -61 -67z"/>
<path d="M3422 2053 c-34 -13 -69 -133 -39 -133 23 0 37 21 25 39 -8 13 -5 28
11 59 12 23 20 42 19 41 -2 0 -9 -3 -16 -6z"/>
<path d="M3188 2033 c-15 -17 -38 -76 -38 -96 0 -15 28 12 51 49 14 22 17 39
12 49 -8 14 -11 14 -25 -2z"/>
<path d="M3544 2042 c-16 -10 -36 -52 -26 -52 14 0 45 38 41 49 -2 6 -9 7 -15
3z"/>
<path d="M2988 2023 c-25 -29 -38 -60 -38 -92 0 -33 1 -34 24 -25 11 4 13 14
9 35 -4 19 1 40 15 64 22 37 16 47 -10 18z"/>
<path d="M3432 1995 c-6 -14 -7 -25 -2 -25 9 0 25 39 18 46 -3 2 -10 -7 -16
-21z"/>
<path d="M3010 1981 c-12 -24 -13 -34 -1 -27 9 6 22 46 15 46 -2 0 -8 -9 -14
-19z"/>
<path d="M2482 1995 c-46 -58 -50 -128 -8 -112 11 5 14 14 10 35 -4 18 0 42
11 62 21 40 14 49 -13 15z"/>
<path d="M2180 1978 c-11 -18 -20 -38 -20 -45 0 -6 -3 -20 -7 -30 -4 -11 7 -6
30 16 36 34 48 73 27 86 -5 3 -19 -9 -30 -27z"/>
<path d="M2027 1962 c-9 -10 -20 -34 -23 -53 l-7 -34 22 20 c32 28 43 53 33
71 -7 13 -10 12 -25 -4z"/>
<path d="M2506 1954 c-4 -9 -4 -19 -1 -22 2 -3 7 3 11 12 4 9 4 19 1 22 -2 3
-7 -3 -11 -12z"/>
<path d="M1522 1973 c-18 -7 -52 -77 -52 -108 0 -28 21 -33 40 -10 10 12 10
15 0 15 -17 0 -5 58 17 82 18 20 16 28 -5 21z"/>
<path d="M1145 1927 c-7 -18 -17 -46 -20 -63 l-7 -29 22 25 c40 47 52 70 46
85 -9 25 -26 17 -41 -18z"/>
<path d="M1532 1915 c-6 -14 -8 -25 -3 -25 8 0 23 41 17 47 -1 2 -8 -8 -14
-22z"/>
<path d="M2444 1685 c8 -7 12 -16 8 -20 -4 -5 -2 -5 5 -1 16 9 6 33 -14 33
-14 0 -14 -1 1 -12z"/>
<path d="M2271 1654 c0 -11 3 -14 6 -6 3 7 2 16 -1 19 -3 4 -6 -2 -5 -13z"/>
</g>
</svg>
